<?xml version="1.0" encoding="UTF-8"?>
<svg xmlns="http://www.w3.org/2000/svg" xmlns:xlink="http://www.w3.org/1999/xlink" width="32px" height="32px" viewBox="0 0 32 32" version="1.1">
<g id="surface1">
<path style=" stroke:none;fill-rule:evenodd;fill:rgb(0%,0%,0%);fill-opacity:1;" d="M 20.15625 31.933594 C 30.835938 31.625 31.886719 29.375 31.886719 16.617188 C 31.886719 2.535156 30.605469 1.253906 16.527344 1.253906 C 2.445312 1.253906 1.167969 2.535156 1.167969 16.617188 C 1.167969 29.410156 2.222656 31.636719 12.976562 31.933594 C 13.070312 31.820312 13.105469 31.671875 13.105469 31.523438 C 13.105469 31.203125 13.09375 27.917969 13.085938 26.789062 C 9.199219 27.605469 8.378906 24.972656 8.378906 24.972656 C 7.742188 23.410156 6.828125 22.992188 6.828125 22.992188 C 5.558594 22.152344 6.921875 22.167969 6.921875 22.167969 C 8.324219 22.265625 9.0625 23.566406 9.0625 23.566406 C 10.3125 25.632812 12.335938 25.035156 13.132812 24.691406 C 13.257812 23.816406 13.621094 23.21875 14.019531 22.878906 C 10.914062 22.539062 7.652344 21.375 7.652344 16.1875 C 7.652344 14.707031 8.199219 13.5 9.089844 12.550781 C 8.945312 12.207031 8.46875 10.832031 9.226562 8.96875 C 9.226562 8.96875 10.402344 8.601562 13.070312 10.355469 C 14.1875 10.054688 15.382812 9.90625 16.570312 9.898438 C 17.757812 9.90625 18.953125 10.054688 20.070312 10.355469 C 22.738281 8.601562 23.910156 8.96875 23.910156 8.96875 C 24.671875 10.832031 24.195312 12.207031 24.046875 12.550781 C 24.945312 13.5 25.484375 14.707031 25.484375 16.1875 C 25.484375 21.390625 22.21875 22.535156 19.105469 22.867188 C 19.605469 23.289062 20.050781 24.113281 20.050781 25.378906 C 20.050781 26.589844 20.046875 28.730469 20.039062 30.148438 C 20.039062 30.851562 20.035156 31.375 20.035156 31.523438 C 20.035156 31.664062 20.074219 31.8125 20.15625 31.933594 Z M 20.15625 31.933594 "/>
</g>
</svg>
