<?xml version="1.0" encoding="UTF-8"?>
<svg xmlns="http://www.w3.org/2000/svg" xmlns:xlink="http://www.w3.org/1999/xlink" width="32px" height="32px" viewBox="0 0 32 32" version="1.1">
<g id="surface1">
<path style=" stroke:none;fill-rule:evenodd;fill:rgb(0%,0%,0%);fill-opacity:1;" d="M 28.089844 0 C 30.25 0 32 1.75 32 3.910156 L 32 28.089844 C 32 30.25 30.25 32 28.089844 32 L 3.910156 32 C 1.75 32 0 30.25 0 28.089844 L 0 3.910156 C 0 1.75 1.75 0 3.910156 0 Z M 10.027344 26.453125 L 10.027344 12.347656 L 5.339844 12.347656 L 5.339844 26.453125 Z M 26.9375 26.453125 L 26.9375 18.363281 C 26.9375 14.03125 24.625 12.015625 21.539062 12.015625 C 19.050781 12.015625 17.9375 13.382812 17.3125 14.34375 L 17.3125 12.347656 L 12.625 12.347656 C 12.6875 13.671875 12.625 26.453125 12.625 26.453125 L 17.3125 26.453125 L 17.3125 18.578125 C 17.3125 18.15625 17.34375 17.734375 17.46875 17.433594 C 17.804688 16.589844 18.578125 15.71875 19.875 15.71875 C 21.570312 15.71875 22.25 17.011719 22.25 18.90625 L 22.25 26.453125 Z M 7.714844 5.546875 C 6.109375 5.546875 5.0625 6.601562 5.0625 7.984375 C 5.0625 9.335938 6.078125 10.421875 7.652344 10.421875 L 7.683594 10.421875 C 9.320312 10.421875 10.335938 9.335938 10.335938 7.984375 C 10.304688 6.601562 9.320312 5.546875 7.714844 5.546875 Z M 7.714844 5.546875 "/>
</g>
</svg>
