<?xml version="1.0" encoding="UTF-8"?>
<svg xmlns="http://www.w3.org/2000/svg" xmlns:xlink="http://www.w3.org/1999/xlink" width="32px" height="32px" viewBox="0 0 32 32" version="1.1">
<g id="surface1">
<path style=" stroke:none;fill-rule:evenodd;fill:rgb(0%,0%,0%);fill-opacity:1;" d="M 28.089844 0 C 30.25 0 32 1.75 32 3.910156 L 32 28.089844 C 32 30.25 30.25 32 28.089844 32 L 3.910156 32 C 1.75 32 0 30.25 0 28.089844 L 0 3.910156 C 0 1.75 1.75 0 3.910156 0 Z M 12.21875 26.535156 C 20.714844 26.535156 25.363281 19.492188 25.363281 13.390625 C 25.363281 13.191406 25.363281 12.988281 25.351562 12.796875 C 26.253906 12.148438 27.039062 11.332031 27.660156 10.402344 C 26.835938 10.769531 25.945312 11.015625 25.007812 11.132812 C 25.964844 10.558594 26.691406 9.65625 27.039062 8.574219 C 26.148438 9.101562 25.160156 9.484375 24.105469 9.695312 C 23.265625 8.792969 22.066406 8.238281 20.734375 8.238281 C 18.1875 8.238281 16.117188 10.308594 16.117188 12.855469 C 16.117188 13.21875 16.15625 13.574219 16.242188 13.910156 C 12.402344 13.71875 9 11.878906 6.722656 9.082031 C 6.328125 9.761719 6.097656 10.558594 6.097656 11.398438 C 6.097656 13 6.914062 14.417969 8.160156 15.242188 C 7.402344 15.222656 6.691406 15.011719 6.070312 14.667969 L 6.070312 14.722656 C 6.070312 16.964844 7.660156 18.824219 9.777344 19.253906 C 9.394531 19.359375 8.984375 19.417969 8.5625 19.417969 C 8.265625 19.417969 7.976562 19.386719 7.6875 19.332031 C 8.273438 21.171875 9.980469 22.5 12 22.539062 C 10.417969 23.777344 8.425781 24.511719 6.261719 24.511719 C 5.886719 24.511719 5.523438 24.492188 5.160156 24.445312 C 7.179688 25.769531 9.613281 26.535156 12.21875 26.535156 Z M 12.21875 26.535156 "/>
</g>
</svg>
